PathFileType	4	(X/Y/Z)	E:/New_biomech_experiments/MICROGRAVITY MOCAP/Session 2024-06-22/Neeraj_StickPose_22_06_24.trc	
DataRate	CameraRate	NumFrames	NumMarkers	Units	OrigDataRate	OrigDataStartFrame	OrigNumFrames	
120.00	120.00	12	19	m	120.00	393	1570	
Frame#	Time	 RSHO			 RBAK			 LBHD			 RUPA			 PRSHO			 RWRA			 RELB			 RFRM			 CLAV			 STRN			 ARSHO			 RFHD			 LFHD			 DIA			 C7			 RBHD			 MRELB			 RWRB			 T10			
		X1	Y1	Z1	X2	Y2	Z2	X3	Y3	Z3	X4	Y4	Z4	X5	Y5	Z5	X6	Y6	Z6	X7	Y7	Z7	X8	Y8	Z8	X9	Y9	Z9	X10	Y10	Z10	X11	Y11	Z11	X12	Y12	Z12	X13	Y13	Z13	X14	Y14	Z14	X15	Y15	Z15	X16	Y16	Z16	X17	Y17	Z17	X18	Y18	Z18	X19	Y19	Z19	

393	3.267	-0.02128	1.51753	0.18870	-0.12710	1.36342	0.04766	-0.05439	1.71632	-0.08077	-0.00352	1.30328	0.23375	-0.10694	1.46418	0.13201	0.03864	0.88412	0.21119	-0.00726	1.16133	0.24078	0.00135	1.02594	0.25244	0.09465	1.48561	-0.02639	0.13741	1.32397	-0.01993	0.07568	1.46072	0.14004	0.04954	1.81498	0.05926	0.06067	1.82895	-0.04313	0.07747	1.16625	0.13755	-0.09873	1.53042	-0.01949	-0.07400	1.71502	0.02257	-0.06849	1.14398	0.13749	-0.05588	0.86354	0.23720	-0.11712	1.33368	-0.02281 
394	3.275	-0.02116	1.51753	0.18870	-0.12706	1.36342	0.04771	-0.05436	1.71629	-0.08076	-0.00350	1.30331	0.23379	-0.10691	1.46419	0.13204	0.03872	0.88415	0.21128	-0.00721	1.16135	0.24085	0.00141	1.02596	0.25252	0.09467	1.48561	-0.02635	0.13745	1.32399	-0.01989	0.07572	1.46074	0.14008	0.04955	1.81498	0.05929	0.06069	1.82894	-0.04311	0.07751	1.16624	0.13760	-0.09870	1.53039	-0.01946	-0.07399	1.71501	0.02260	-0.06844	1.14399	0.13757	-0.05582	0.86358	0.23729	-0.11709	1.33368	-0.02277 
395	3.283	-0.02103	1.51748	0.18868	-0.12702	1.36342	0.04775	-0.05435	1.71628	-0.08074	-0.00347	1.30334	0.23384	-0.10689	1.46420	0.13208	0.03880	0.88417	0.21137	-0.00715	1.16136	0.24093	0.00148	1.02598	0.25259	0.09470	1.48562	-0.02632	0.13749	1.32400	-0.01985	0.07575	1.46076	0.14011	0.04956	1.81499	0.05931	0.06069	1.82894	-0.04309	0.07756	1.16622	0.13764	-0.09867	1.53034	-0.01944	-0.07397	1.71500	0.02263	-0.06838	1.14400	0.13765	-0.05577	0.86361	0.23737	-0.11705	1.33368	-0.02273 
396	3.292	-0.02091	1.51739	0.18861	-0.12698	1.36341	0.04780	-0.05433	1.71626	-0.08071	-0.00345	1.30337	0.23388	-0.10685	1.46421	0.13212	0.03887	0.88419	0.21146	-0.00709	1.16136	0.24102	0.00156	1.02599	0.25266	0.09473	1.48563	-0.02629	0.13753	1.32401	-0.01981	0.07579	1.46078	0.14015	0.04956	1.81499	0.05933	0.06070	1.82895	-0.04307	0.07761	1.16621	0.13769	-0.09864	1.53030	-0.01941	-0.07396	1.71499	0.02266	-0.06831	1.14400	0.13772	-0.05571	0.86364	0.23745	-0.11702	1.33368	-0.02270 
397	3.300	-0.02078	1.51729	0.18853	-0.12693	1.36341	0.04785	-0.05432	1.71625	-0.08069	-0.00341	1.30340	0.23393	-0.10682	1.46421	0.13216	0.03894	0.88421	0.21154	-0.00702	1.16135	0.24111	0.00164	1.02600	0.25274	0.09477	1.48564	-0.02625	0.13758	1.32403	-0.01977	0.07583	1.46081	0.14019	0.04956	1.81500	0.05936	0.06069	1.82896	-0.04305	0.07765	1.16621	0.13774	-0.09861	1.53026	-0.01938	-0.07396	1.71498	0.02269	-0.06824	1.14400	0.13780	-0.05565	0.86367	0.23753	-0.11699	1.33368	-0.02266 
398	3.308	-0.02070	1.51726	0.18852	-0.12689	1.36340	0.04790	-0.05432	1.71624	-0.08066	-0.00338	1.30343	0.23397	-0.10679	1.46422	0.13220	0.03902	0.88423	0.21163	-0.00695	1.16134	0.24120	0.00172	1.02601	0.25281	0.09480	1.48565	-0.02622	0.13762	1.32404	-0.01973	0.07586	1.46083	0.14023	0.04956	1.81500	0.05939	0.06069	1.82896	-0.04303	0.07770	1.16620	0.13779	-0.09859	1.53023	-0.01936	-0.07395	1.71497	0.02272	-0.06817	1.14400	0.13788	-0.05559	0.86370	0.23761	-0.11696	1.33368	-0.02262 
399	3.317	-0.02066	1.51729	0.18857	-0.12685	1.36340	0.04796	-0.05431	1.71623	-0.08063	-0.00336	1.30345	0.23401	-0.10676	1.46422	0.13225	0.03909	0.88424	0.21171	-0.00688	1.16133	0.24128	0.00180	1.02602	0.25287	0.09483	1.48566	-0.02618	0.13766	1.32406	-0.01969	0.07590	1.46085	0.14026	0.04955	1.81500	0.05941	0.06068	1.82897	-0.04301	0.07774	1.16619	0.13784	-0.09856	1.53016	-0.01933	-0.07395	1.71496	0.02275	-0.06810	1.14400	0.13795	-0.05552	0.86372	0.23770	-0.11693	1.33368	-0.02259 
400	3.325	-0.02064	1.51733	0.18863	-0.12680	1.36339	0.04801	-0.05431	1.71622	-0.08059	-0.00335	1.30348	0.23404	-0.10672	1.46422	0.13229	0.03916	0.88425	0.21178	-0.00681	1.16133	0.24135	0.00188	1.02604	0.25294	0.09486	1.48567	-0.02614	0.13771	1.32407	-0.01965	0.07594	1.46086	0.14029	0.04954	1.81501	0.05944	0.06067	1.82898	-0.04298	0.07779	1.16619	0.13788	-0.09852	1.53004	-0.01932	-0.07395	1.71495	0.02279	-0.06803	1.14399	0.13802	-0.05545	0.86374	0.23778	-0.11689	1.33368	-0.02255 
401	3.333	-0.02063	1.51738	0.18871	-0.12676	1.36338	0.04806	-0.05432	1.71621	-0.08056	-0.00334	1.30350	0.23408	-0.10669	1.46422	0.13233	0.03924	0.88426	0.21186	-0.00674	1.16133	0.24141	0.00197	1.02604	0.25301	0.09490	1.48568	-0.02611	0.13776	1.32409	-0.01960	0.07598	1.46088	0.14033	0.04953	1.81501	0.05948	0.06066	1.82898	-0.04295	0.07784	1.16618	0.13793	-0.09848	1.52995	-0.01930	-0.07395	1.71494	0.02282	-0.06796	1.14399	0.13809	-0.05538	0.86375	0.23786	-0.11686	1.33368	-0.02252 
402	3.342	-0.02065	1.51744	0.18881	-0.12671	1.36337	0.04811	-0.05432	1.71620	-0.08052	-0.00330	1.30352	0.23413	-0.10666	1.46422	0.13238	0.03931	0.88427	0.21193	-0.00667	1.16133	0.24148	0.00207	1.02604	0.25308	0.09493	1.48570	-0.02607	0.13780	1.32411	-0.01956	0.07602	1.46089	0.14037	0.04952	1.81502	0.05951	0.06064	1.82898	-0.04292	0.07788	1.16617	0.13798	-0.09845	1.52990	-0.01927	-0.07396	1.71492	0.02287	-0.06790	1.14399	0.13815	-0.05531	0.86376	0.23793	-0.11683	1.33367	-0.02248 
403	3.350	-0.02069	1.51753	0.18894	-0.12667	1.36336	0.04817	-0.05433	1.71619	-0.08048	-0.00325	1.30353	0.23418	-0.10662	1.46422	0.13242	0.03939	0.88427	0.21199	-0.00660	1.16133	0.24154	0.00215	1.02605	0.25314	0.09497	1.48571	-0.02603	0.13785	1.32412	-0.01953	0.07606	1.46091	0.14040	0.04950	1.81503	0.05955	0.06062	1.82899	-0.04288	0.07793	1.16617	0.13803	-0.09842	1.52985	-0.01924	-0.07396	1.71491	0.02291	-0.06783	1.14398	0.13821	-0.05523	0.86377	0.23800	-0.11680	1.33367	-0.02245 
404	3.358	-0.02075	1.51760	0.18907	-0.12662	1.36335	0.04822	-0.05433	1.71618	-0.08044	-0.00318	1.30354	0.23424	-0.10659	1.46422	0.13246	0.03947	0.88428	0.21205	-0.00653	1.16133	0.24159	0.00221	1.02605	0.25319	0.09500	1.48572	-0.02599	0.13790	1.32414	-0.01949	0.07610	1.46092	0.14044	0.04949	1.81503	0.05959	0.06060	1.82899	-0.04284	0.07798	1.16616	0.13808	-0.09839	1.52982	-0.01920	-0.07396	1.71489	0.02296	-0.06777	1.14398	0.13827	-0.05515	0.86377	0.23807	-0.11677	1.33367	-0.02241 
